<?xml version="1.0" encoding="UTF-8"?>
<svg width="68px" height="68px" viewBox="0 0 68 68" version="1.1" xmlns="http://www.w3.org/2000/svg" xmlns:xlink="http://www.w3.org/1999/xlink">
    <!-- Generator: Sketch 48.2 (47327) - http://www.bohemiancoding.com/sketch -->
    <title>иконка</title>
    <desc>Created with Sketch.</desc>
    <defs>
        <circle id="path-1" cx="30" cy="30" r="30"></circle>
        <filter x="-11.7%" y="-8.3%" width="123.3%" height="123.3%" filterUnits="objectBoundingBox" id="filter-2">
            <feOffset dx="0" dy="2" in="SourceAlpha" result="shadowOffsetOuter1"></feOffset>
            <feGaussianBlur stdDeviation="2" in="shadowOffsetOuter1" result="shadowBlurOuter1"></feGaussianBlur>
            <feColorMatrix values="0 0 0 0 0   0 0 0 0 0   0 0 0 0 0  0 0 0 0.411543252 0" type="matrix" in="shadowBlurOuter1"></feColorMatrix>
        </filter>
    </defs>
    <g id="Desktop-HD-Copy" stroke="none" stroke-width="1" fill="none" fill-rule="evenodd" transform="translate(-836.000000, -877.000000)">
        <g id="блок1" transform="translate(126.000000, 693.000000)">
            <g id="иконка" transform="translate(714.000000, 186.000000)">
                <g id="Oval-2">
                    <use fill="black" fill-opacity="1" filter="url(#filter-2)" xlink:href="#path-1"></use>
                    <use fill="#DB444D" fill-rule="evenodd" xlink:href="#path-1"></use>
                </g>
                <g id="3" transform="translate(30.500000, 30.000000) scale(-1, 1) translate(-30.500000, -30.000000) translate(17.000000, 14.000000)" fill="#9D2041">
                    <polygon id="Fill-241" points="4 32 20 32 20 30 4 30"></polygon>
                    <polygon id="Fill-242" points="7 29 17 29 17 27 7 27"></polygon>
                    <path d="M10.9014805,2.97634487 C11.230143,3.08338138 11.5385558,3.24565006 11.8097957,3.45740102 C12.6483169,4.11205977 13.0229057,5.16064165 12.8148073,6.14625112 L20.0857643,4.03708998 C20.5659196,3.89782088 20.9600578,3.58975918 21.1955837,3.1696851 C21.4311096,2.74961101 21.4798954,2.26778084 21.3328376,1.81293095 C21.0893169,1.05925236 20.3673332,0.552874553 19.5362817,0.552874553 C19.350417,0.552874553 19.1649608,0.579357244 18.9852235,0.631438027 L10.9014805,2.97634487 Z M11.8648257,7 L12.1072376,6.45519742 C12.5056942,5.55981708 12.2307194,4.50249978 11.4386499,3.88405431 C11.0097314,3.54917819 10.4632833,3.36921752 9.90773168,3.37894812 L9,3.39514734 L9.72781932,2.88097401 C9.95465011,2.72064039 10.2075078,2.59945028 10.4792146,2.52061037 L18.8143564,0.102834667 C19.0495321,0.034609947 19.2924109,0 19.5362817,0 C20.6255013,0 21.5717482,0.663504751 21.8908986,1.65104928 C22.0835326,2.24710333 22.0195741,2.87854136 21.7109278,3.42903855 C21.4022816,3.97959103 20.8857703,4.38324474 20.2566314,4.56574863 L11.8648257,7 Z" id="Fill-243"></path>
                    <polyline id="Fill-244" points="20 4.97551553 20.836799 9.08297032 25.7244594 11 21.8563137 8.20335592 22.5017788 6.22526728 23.7908622 4.98288696 25.3664708 4.81758417 27 9.44971551 26.3528561 3.62288986 22.5670304 2 20 4.97551553"></polyline>
                    <path d="M22,2.49997007 C22,3.88070243 20.8807623,5 19.5000299,5 C18.1192976,5 17,3.88070243 17,2.49997007 C17,1.11929757 18.1192976,0 19.5000299,0 C20.8807623,0 22,1.11929757 22,2.49997007" id="Fill-245"></path>
                    <path d="M1.24489463,15.4407623 C0.217285495,14.4484098 0.142577675,12.7602802 1.07801555,11.6702135 C1.10139312,11.6429293 1.12549602,11.6168288 1.1497105,11.5907875 L7.47978946,3.44292678 C7.90778325,2.89203414 8.53964738,2.57610538 9.2134126,2.57610538 C9.73201543,2.57610538 10.238511,2.76916638 10.6395006,3.11971828 C11.1021981,3.52424677 11.3887548,4.09561736 11.4462781,4.72871776 C11.5038573,5.36181816 11.3255405,5.98077338 10.9441903,6.47159338 L6.00973596,12.8230753 L6.41184145,13.211328 L11.3633128,6.83794764 C11.8368343,6.22840281 12.0582797,5.45970991 11.9868637,4.67343911 C11.9154477,3.8871683 11.5595952,3.17754188 10.9848639,2.67518083 C10.486849,2.23981703 9.85777452,2 9.2134126,2 C8.37684124,2 7.59221385,2.39239559 7.06066687,3.07657252 L0.636742844,11.3452887 C0.163165566,11.9548335 -0.0582797949,12.7235264 0.0131361944,13.5097972 C0.0846079774,14.2960088 0.440460461,15.0056944 1.01502441,15.5080555 C1.25795036,15.7204107 1.5321766,15.8858324 1.82403367,16 L1.24489463,15.4407623" id="Fill-246"></path>
                    <path d="M3.20554903,11.5266295 C2.47993576,11.5266295 1.78377566,11.7858866 1.29564866,12.2380175 C0.337361723,13.1255078 0.414235149,14.5048399 1.46684924,15.3128001 L10.0574225,21.9063809 C10.5339351,22.2719485 11.1508475,22.4733705 11.7945181,22.4733705 C12.5201314,22.4733705 13.2162273,22.2140593 13.7043543,21.7620366 C14.6625771,20.8744922 14.5857678,19.495106 13.5331537,18.6871999 L4.94258045,12.0936732 C4.46613205,11.7279974 3.8492196,11.5266295 3.20554903,11.5266295 Z M11.7945181,23 C10.994919,23 10.2286873,22.749778 9.63705706,22.2957534 L1.04641962,15.7021726 C-0.26094197,14.6987958 -0.356295819,12.9857621 0.833766418,11.8835408 C1.44002696,11.3220155 2.30450008,11 3.20554903,11 C4.00514817,11 4.7713157,11.2501138 5.36301008,11.7042466 L13.9536475,18.2977732 C15.2609449,19.3012042 15.3562988,21.014292 14.1661724,22.1165133 C13.559976,22.6779304 12.6955671,23 11.7945181,23 Z" id="Fill-247"></path>
                    <path d="M15,21.0000313 C15,22.6569107 13.6568621,24 12,24 C10.3432005,24 9,22.6569107 9,21.0000313 C9,19.3432145 10.3432005,18 12,18 C13.6568621,18 15,19.3432145 15,21.0000313" id="Fill-248"></path>
                    <path d="M2.81794405,14.1141291 C2.60482198,13.9385307 2.28982367,13.9689228 2.11408477,14.1821426 C1.93858367,14.3950771 1.96892776,14.710222 2.1819547,14.8857728 C2.39517189,15.0614664 2.71031288,15.0310743 2.88576642,14.8180923 C3.06150532,14.6048725 3.03106611,14.2898227 2.81794405,14.1141291" id="Fill-249"></path>
                    <path d="M2.5780709,13.4773221 C2.31504139,13.7967299 1.84167874,13.8423381 1.52237192,13.5790633 C1.20340435,13.3159772 1.15775679,12.8422411 1.42078629,12.5228333 C1.6838535,12.2033501 2.15725384,12.1577042 2.47618371,12.4207903 C2.79541514,12.6841028 2.8411381,13.1578388 2.5780709,13.4773221 Z M2.63483823,12.2279837 C2.20938479,11.8771142 1.57838537,11.9380382 1.22771706,12.363865 C0.877274905,12.7894278 0.938075506,13.4209627 1.36349125,13.7718699 C1.78913315,14.122928 2.42013257,14.0619286 2.77057472,13.6363659 C2.79243731,13.6097328 2.81264135,13.5824962 2.83148841,13.5543919 C3.11679513,13.125849 3.03232263,12.5558417 2.63483823,12.2279837 Z" id="Fill-250"></path>
                    <path d="M9.81796535,5.11413667 C9.6048451,4.9385328 9.28984946,4.96892578 9.11406449,5.18210469 C8.93856488,5.39504579 8.96895628,5.71020052 9.18198141,5.8858044 C9.39519679,6.06145583 9.71028754,6.03106285 9.88578715,5.81812175 C10.061477,5.60489527 10.0310856,5.28978811 9.81796535,5.11413667" id="Fill-251"></path>
                    <path d="M10.5780749,6.47731138 C10.3150101,6.79672164 9.84165194,6.84240556 9.52238582,6.5790911 C9.20342125,6.31600297 9.15781181,5.84222555 9.42076345,5.52281529 C9.68382818,5.20332958 10.1572241,5.15768337 10.4761509,5.42080922 C10.7953794,5.68408597 10.8411019,6.15786339 10.5780749,6.47731138 Z M10.6348417,5.22800116 C10.2093545,4.87709125 9.57836105,4.93805345 9.22773372,5.3638835 C8.87725717,5.78941175 8.9380949,6.42098924 9.36346894,6.77189915 C9.78914454,7.12292224 10.420138,7.06192231 10.7705392,6.63635633 C10.7924393,6.60976082 10.8126808,6.58248627 10.83149,6.55438179 C11.116794,6.1258356 11.0323223,5.55586163 10.6348417,5.22800116 Z" id="Fill-252"></path>
                    <path d="M11.8179195,21.1140897 C11.6048481,20.9385974 11.2898203,20.968883 11.1140752,21.1820486 C10.9385893,21.3949983 10.968917,21.7101671 11.1819885,21.885789 C11.3951464,22.0614541 11.7103038,22.0310821 11.8857896,21.8180892 C12.0614915,21.6048804 12.0310774,21.2897979 11.8179195,21.1140897" id="Fill-253"></path>
                    <path d="M13.1560478,22.9546575 C12.630012,23.593366 11.6832572,23.6847863 11.0447147,23.1581259 C10.4067884,22.6319452 10.3155778,21.6845733 10.8416136,21.0456592 C11.3677179,20.4066766 12.3144042,20.3153933 12.9523305,20.841574 C13.5908045,21.3682344 13.6822205,22.3158119 13.1560478,22.9546575 Z M13.2695817,20.4559503 C12.4187623,19.7541933 11.1567421,19.8761099 10.4554067,20.7278126 C9.75455063,21.57883 9.87616473,22.8419241 10.7269841,23.5437496 C11.5782828,24.2459178 12.8402346,24.1237956 13.5410906,23.2726412 C13.5848471,23.2195297 13.6253166,23.1649105 13.6629786,23.1087151 C14.2335926,22.251667 14.0646613,21.1117916 13.2695817,20.4559503 Z" id="Fill-254"></path>
                    <path d="M14.988172,20.4243078 C14.8567495,19.066277 13.56956,18 12,18 C10.4305025,18 9.14325052,19.066277 9.01182802,20.4243078 L9,20.4243078 L9,28 L15,28 L15,20.4243078 L14.988172,20.4243078" id="Fill-255"></path>
                    <path d="M11.8179852,21.1141049 C11.6048617,20.9385898 11.2898472,20.9688642 11.1140886,21.1821266 C10.9385695,21.3950537 10.9689404,21.710157 11.1819681,21.885768 C11.3951394,22.0614748 11.7103456,22.0310566 11.8858168,21.8181295 C12.0614796,21.604915 12.0310608,21.2898117 11.8179852,21.1141049" id="Fill-256"></path>
                    <path d="M11.5780365,21.4773293 C11.3150558,21.796708 10.8416374,21.842339 10.5223552,21.5790776 C10.2034147,21.3160061 10.1577433,20.8422572 10.4207999,20.5228024 C10.6838565,20.2033477 11.157237,20.1576787 11.4761775,20.4207501 C11.7954217,20.6841255 11.8411311,21.1578745 11.5780365,21.4773293 Z M11.6348695,20.2279679 C11.2094003,19.87713 10.578353,19.9380346 10.227712,20.3638349 C9.87729887,20.7894073 9.93804221,21.420908 10.3635114,21.7718599 C10.7891324,22.1229257 11.4201038,22.0619451 11.7705549,21.6363348 C11.7924605,21.6097768 11.8126956,21.5824591 11.8314881,21.5543434 C12.116792,21.1258834 12.0323208,20.5558193 11.6348695,20.2279679 Z" id="Fill-257"></path>
                    <path d="M20.8180034,2.11415137 C20.6048256,1.93856699 20.2898403,1.96888279 20.1140027,2.18206916 C19.9386206,2.39506036 19.9689351,2.71018846 20.1819178,2.88577283 C20.3951606,3.06148732 20.710276,3.03104142 20.8857883,2.81811527 C21.0614957,2.60499396 21.031051,2.28973575 20.8180034,2.11415137" id="Fill-258"></path>
                    <path d="M19.5780852,2.47729677 C19.3150924,2.79668955 18.841592,2.84235395 18.5223504,2.57909999 C18.2033666,2.31600083 18.1577901,1.84222627 18.4207829,1.52278189 C18.6838272,1.20333751 19.157173,1.15767311 19.4761568,1.42077227 C19.7953984,1.68407782 19.8411295,2.15790398 19.5780852,2.47729677 Z M19.634798,1.22800144 C19.2094003,0.877082164 18.5783414,0.938071222 18.22765,1.36385947 C17.8772679,1.78938973 17.9381053,2.42095155 18.3635545,2.77187082 C18.7891584,3.12294489 19.4201142,3.06190424 19.7705478,2.63637398 C19.792408,2.60974932 19.81267,2.58245387 19.8315399,2.55438446 C20.1167538,2.12580991 20.0323548,1.55585633 19.634798,1.22800144 Z" id="Fill-259"></path>
                </g>
            </g>
        </g>
    </g>
</svg>