<?xml version="1.0" encoding="UTF-8"?>
<svg width="68px" height="68px" viewBox="0 0 68 68" version="1.1" xmlns="http://www.w3.org/2000/svg" xmlns:xlink="http://www.w3.org/1999/xlink">
    <!-- Generator: Sketch 48.2 (47327) - http://www.bohemiancoding.com/sketch -->
    <title>иконка</title>
    <desc>Created with Sketch.</desc>
    <defs>
        <circle id="path-1" cx="30" cy="30" r="30"></circle>
        <filter x="-11.7%" y="-8.3%" width="123.3%" height="123.3%" filterUnits="objectBoundingBox" id="filter-2">
            <feOffset dx="0" dy="2" in="SourceAlpha" result="shadowOffsetOuter1"></feOffset>
            <feGaussianBlur stdDeviation="2" in="shadowOffsetOuter1" result="shadowBlurOuter1"></feGaussianBlur>
            <feColorMatrix values="0 0 0 0 0   0 0 0 0 0   0 0 0 0 0  0 0 0 0.411543252 0" type="matrix" in="shadowBlurOuter1"></feColorMatrix>
        </filter>
    </defs>
    <g id="WMS-система" stroke="none" stroke-width="1" fill="none" fill-rule="evenodd" transform="translate(-140.000000, -2274.000000)">
        <g id="блок3" transform="translate(141.000000, 2276.000000)">
            <g id="иконка" transform="translate(3.000000, 0.000000)">
                <g id="Oval-2">
                    <use fill="black" fill-opacity="1" filter="url(#filter-2)" xlink:href="#path-1"></use>
                    <use fill="#DB444D" fill-rule="evenodd" xlink:href="#path-1"></use>
                </g>
                <g id="hand-shake" transform="translate(14.000000, 21.000000)" fill="#9D2041" fill-rule="nonzero">
                    <path d="M26.7582319,14.5725538 C26.0949723,13.2338992 23.7221429,11.3757963 21.4296466,9.58044386 C20.1509842,8.57982369 18.9427535,7.63377467 18.1724932,6.88811806 C17.9795485,6.69999457 17.6908907,6.63999187 17.4360296,6.72862206 C16.9614901,6.89495543 16.6685417,7.02307622 16.4376418,7.12256952 C16.0856152,7.27522816 15.9673269,7.32705158 15.4927214,7.37337955 C15.2828785,7.39382775 15.0942244,7.50290615 14.9773223,7.67192335 C13.9817069,9.11281896 12.9509087,8.99012972 12.2623017,8.76660527 C12.0426234,8.69573946 12.0032159,8.60436154 11.982093,8.51713716 C11.8342326,7.91870764 12.576373,6.52548191 13.5381257,5.59438564 C15.8264635,3.37780013 17.0065083,2.82295085 19.4990122,3.9012742 C22.3266444,5.12541882 25.1599533,6.08380067 25.1881392,6.09332186 C25.5585163,6.21735301 25.9570133,6.02922952 26.085137,5.67343074 C26.2118745,5.31763196 26.0189298,4.92911605 25.6513911,4.8050849 C25.6232052,4.7955637 22.8462681,3.85628815 20.0749417,2.65527556 C16.8459741,1.2579602 15.0744217,2.17812946 12.5438965,4.62923033 C11.5806916,5.56166851 10.2724571,7.448335 10.6104237,8.83203953 C10.7554458,9.42094786 11.1835808,9.85719755 11.8200406,10.0602738 C13.4155468,10.570137 14.8715757,10.0820639 15.9559073,8.68890209 C16.4037131,8.62212592 16.6473527,8.52397453 17.0134392,8.36447852 C17.1457875,8.30722355 17.3007109,8.24044738 17.5063293,8.15999647 C18.3118384,8.89204223 19.3989424,9.74402951 20.5438044,10.6396609 C22.61385,12.2605007 24.9613319,14.0981554 25.4894048,15.1614621 C25.7499427,15.6862781 25.4696681,16.0284661 25.2795618,16.1852143 C25.0007393,16.416982 24.6191407,16.4905955 24.4121361,16.3501419 C24.1840087,16.1988252 23.8869017,16.189304 23.6517112,16.3256041 C23.4151346,16.4619041 23.2827863,16.7195515 23.3123584,16.9840363 C23.360215,17.4175382 22.9504304,17.6656644 22.772998,17.7515469 C22.3223538,17.9723875 21.8520389,17.9342388 21.6759926,17.7760848 C21.4788234,17.5988883 21.1957763,17.5470648 20.9451397,17.637037 C20.6945032,17.728351 20.5198431,17.9519393 20.4944956,18.2109286 C20.4522497,18.6580414 20.1100585,19.0874538 19.6636389,19.255129 C19.4481852,19.3341741 19.1355661,19.3819079 18.8553574,19.1337817 C18.6807633,18.9811231 18.4385099,18.9224623 18.2118346,18.9756276 C17.9823209,19.0301349 17.7978255,19.1910367 17.7175584,19.4050399 C17.6908247,19.4732219 17.6302283,19.6368076 16.9711934,19.6368076 C16.5022647,19.6368076 15.6587343,19.3300845 15.2461774,19.0655997 C14.7519012,18.7506974 11.6524435,16.5123217 8.97551015,14.3420642 C8.59952227,14.0353411 7.94893651,13.3782508 7.37439323,12.7975217 C6.86460489,12.282227 6.39851458,11.8146659 6.15909954,11.6183632 C5.85915415,11.3729847 5.41557295,11.4097915 5.16632255,11.6988141 C4.91568597,11.9864309 4.95225502,12.417249 5.24942802,12.6598798 C5.46772014,12.8384821 5.89017843,13.2705782 6.35626875,13.7408869 C6.98434541,14.3761232 7.63347898,15.0332135 8.07006322,15.3876704 C10.692143,17.5129419 13.8436819,19.8072306 14.4716925,20.2066096 C14.98993,20.5365286 16.1066061,21 16.9712594,21 C17.6654772,21 18.1992269,20.8459355 18.569538,20.5447079 C19.0652004,20.7314895 19.6285221,20.7328314 20.1706549,20.5283494 C20.8114053,20.2884024 21.338026,19.8044829 21.6365852,19.2183223 C22.1913917,19.3328322 22.8265313,19.2523813 23.403847,18.9716019 C23.9685549,18.696254 24.3768873,18.275021 24.5796672,17.7828582 C25.1401506,17.8114857 25.7174662,17.6192726 26.1948441,17.2225774 C27.0032577,16.553282 27.2257084,15.5118294 26.7582319,14.5725538 Z" id="Shape"></path>
                    <path d="M14.2727087,3 L7.72729132,3 C7.32583906,3 7,3.44801725 7,4 C7,4.55198275 7.32583906,5 7.72729132,5 L14.2727087,5 C14.6741609,5 15,4.55198275 15,4 C15,3.44801725 14.6741609,3 14.2727087,3 Z" id="Shape"></path>
                    <path d="M27.896398,12.3357095 C27.7075095,11.9892695 27.3297896,11.8939541 27.0507693,12.129973 L25.2693228,13.6156583 C24.9903025,13.8486277 24.9159351,14.3191762 25.1036242,14.6656162 C25.2218008,14.8819905 25.4143449,15 25.6105444,15 C25.7263222,15 25.8444989,14.9591506 25.94931,14.8714236 L27.7307564,13.3857384 C28.0097197,13.1526981 28.0840299,12.6822204 27.896398,12.3357095 Z" id="Shape"></path>
                    <path d="M24.7143372,15.8838584 C24.1774593,15.5314172 21.776377,13.483029 20.2916498,12.1932445 C20.005179,11.9432667 19.5298132,11.9345377 19.2313212,12.1744976 C18.9313528,12.4132273 18.9223545,12.809372 19.2088253,13.0581195 C19.5942779,13.393044 22.9941064,16.3463202 23.7844846,16.8662528 C23.9209361,16.9562378 24.0859293,17 24.2478995,17 C24.468359,17 24.6888185,16.9175138 24.8387675,16.7612704 C25.0952907,16.4912569 25.0398243,16.0975726 24.7143372,15.8838584 Z" id="Shape"></path>
                    <path d="M21.7325442,17.7284363 C20.8767985,17.0440676 18.7268203,14.7595792 18.2410562,14.2309832 C17.9724596,13.9395288 17.5224548,13.9223844 17.2310231,14.1881223 C16.9409977,14.4552665 16.9210421,14.9081862 17.1881655,15.1982342 C17.2138801,15.2253571 19.779644,17.9956475 20.8396329,18.8442942 C20.9710852,18.9485669 21.1296583,19 21.2853519,19 C21.4939479,19 21.7024769,18.9071123 21.843907,18.7328558 C22.0897355,18.42419 22.0397126,17.9741501 21.7325442,17.7284363 Z" id="Shape"></path>
                    <path d="M18.7461824,19.7389227 C17.7276549,18.8805975 15.6435272,16.6625824 15.2364109,16.2269594 C14.9664284,15.9384856 14.5135785,15.9227531 14.2264543,16.1926826 C13.937924,16.4626122 13.9235946,16.9139007 14.1921708,17.2024415 C14.7778693,17.8293985 16.7720029,19.9431775 17.8248138,20.8314949 C17.9590684,20.9443002 18.121915,21 18.2847615,21 C18.4875831,21 18.6904717,20.9129022 18.8318911,20.7458029 C19.0861379,20.4430024 19.047569,19.9931198 18.7461824,19.7389227 Z" id="Shape"></path>
                    <path d="M8.76623244,1.59142445 C7.48067491,0.454566166 2.34006205,0.0863324974 0.795044518,0.000951637867 C0.582062308,-0.00882680032 0.38553366,0.0569315558 0.235553121,0.189957691 C0.0855022671,0.321540031 0,0.50634595 0,0.699552138 L0,13.2999557 C0,13.6863681 0.336032347,14 0.750043325,14 L5.25016264,14 C5.57417124,14 5.86217887,13.8054156 5.9626581,13.5169845 C6.07213756,13.2033526 8.65675297,5.79995924 8.99721512,2.15982078 C9.01676252,1.94699209 8.93273685,1.73698536 8.76623244,1.59142445 Z M4.70262469,12.599977 L1.50001634,12.599977 L1.50001634,1.44999805 C3.91060369,1.62778187 6.51167266,2.01419424 7.45669771,2.44260796 C7.05921061,5.50870617 5.26063948,10.9562806 4.70262469,12.599977 Z" id="Shape"></path>
                    <path d="M33.2838712,2 C27.6609808,2 24.541621,3.4070022 24.411312,3.46580229 C24.2251467,3.55118055 24.0861773,3.70940267 24.0289112,3.90122485 C23.971645,4.09304702 24.0002445,4.29884734 24.1076605,4.46960386 C24.9927681,5.86262791 27.7641001,13.59904 28.2968833,15.4862211 C28.3828161,15.7899997 28.6649844,16 28.9872323,16 L33.2838712,16 C33.6791619,16 34,15.6863776 34,15.299977 L34,2.69995734 C34,2.31217861 33.6791619,2 33.2838712,2 Z M32.5678094,14.6000197 L29.5229024,14.6000197 C28.8440334,12.4383944 26.8389129,6.80198563 25.720377,4.47242574 C26.8131331,4.10984705 29.1605749,3.48680232 32.5678094,3.40844595 L32.5678094,14.6000197 Z" id="Shape"></path>
                </g>
            </g>
        </g>
    </g>
</svg>