<?xml version="1.0" encoding="UTF-8"?>
<svg width="68px" height="55px" viewBox="0 0 68 55" version="1.1" xmlns="http://www.w3.org/2000/svg" xmlns:xlink="http://www.w3.org/1999/xlink">
    <!-- Generator: Sketch 48.2 (47327) - http://www.bohemiancoding.com/sketch -->
    <title>лого</title>
    <desc>Created with Sketch.</desc>
    <defs></defs>
    <g id="Desktop-HD-Copy" stroke="none" stroke-width="1" fill="none" fill-rule="evenodd" transform="translate(-139.000000, -60.000000)">
        <g id="хедер">
            <g id="лого" transform="translate(139.000000, 60.000000)">
                <path d="M0,24.9705952 C4.27259371,24.5461012 4.63545973,21.292469 4.63545973,17.3679022 L4.63545973,9.22920097 C4.63545973,3.49945671 8.18416647,0 13.8485666,0 L18,0 L18,5.12596476 L15.170875,5.12596476 C12.2187447,5.12596476 10.5950729,7.06052357 10.5950729,9.83298048 L10.5950729,19.1792407 C10.5950729,23.3379261 9.57412786,26.2952135 6.08077357,27.5027725 C9.57412786,28.7103315 10.5950729,31.6614578 10.5950729,35.8201432 L10.5950729,45.1725644 C10.5950729,47.9450213 12.2187447,49.8734191 15.170875,49.8734191 L18,49.8734191 L18,55 L13.8485666,55 C8.18416647,55 4.63545973,51.4999272 4.63545973,45.7701829 L4.63545973,37.6314817 C4.63545973,33.7130759 4.27259371,30.4538988 0,30.0349498 L0,24.9705952" id="Fill-212" fill="#FFFFFF"></path>
                <path d="M34.4072495,24.5301181 C37.3752665,24.5301181 39.1498934,23.1603719 39.1498934,20.6440054 C39.1498934,18.1778423 37.3752665,16.7578927 34.4072495,16.7578927 L26.5667377,16.7578927 L26.5667377,24.5301181 L34.4072495,24.5301181 Z M20,11 L34.7720682,11 C41.6603412,11 45.7660981,14.9790819 45.7660981,20.464265 C45.7660981,24.6670928 43.3484009,28.050552 39.1498934,29.3341468 L49,43 L41.3882729,43 L32.0823028,30.0648848 L26.5667377,30.0648848 L26.5667377,43 L20,43 L20,11 Z" id="Fill-213" fill="#FFFFFE"></path>
                <path d="M63.3677375,37.6314817 L63.3677375,45.7701829 C63.3677375,51.4999272 59.8120301,55 54.1524265,55 L50,55 L50,49.8734191 L52.8298018,49.8734191 C55.7764867,49.8734191 57.4005468,47.9450213 57.4005468,45.1725644 L57.4005468,35.8201432 C57.4005468,31.6614578 58.4278879,28.7103315 61.9220779,27.5027725 C58.4278879,26.2952135 57.4005468,23.3379261 57.4005468,19.1792407 L57.4005468,9.83298048 C57.4005468,7.06052357 55.7764867,5.12596476 52.8298018,5.12596476 L50,5.12596476 L50,0 L54.1524265,0 C59.8120301,0 63.3677375,3.49945671 63.3677375,9.22920097 L63.3677375,17.3679022 C63.3677375,21.292469 63.7245386,24.5461012 68,24.9705952 L68,30.0349498 C63.7245386,30.4538988 63.3677375,33.7130759 63.3677375,37.6314817" id="Fill-214" fill="#FFFFFF"></path>
            </g>
        </g>
    </g>
</svg>